# xmcd
#
# Track frame offsets:
#	150
#	22173
#	46822
#	80250
#	96135
#	115710
#	138622
#	161107
#	177870
#	224482
#
# Disc length: 3207 seconds
#
# Revision: 2
# Processed by: cddbd v1.5.1PL0 Copyright (c) Steve Scherf et al.
# Submitted via: audiograbber 1.83.01
#
DISCID=860c850a
DTITLE=Eddie Martin - Ice Cream
DYEAR=2003
DGENRE=Blues
TTITLE0=Lets Move It On
TTITLE1=Ice Crean
TTITLE2=Put The Brakes On
TTITLE3=Elmore's Stomp
TTITLE4=Love Is Like A River
TTITLE5=Keep It Natural
TTITLE6=Cherry Red (335)
TTITLE7=Blues Took Me By The Hand
TTITLE8=Tough But Tender
TTITLE9=Lazy Monday
EXTD=
EXTT0=
EXTT1=
EXTT2=
EXTT3=
EXTT4=
EXTT5=
EXTT6=
EXTT7=
EXTT8=
EXTT9=
PLAYORDER=
